<svg width="88" height="80" viewBox="0 0 88 80" fill="none" xmlns="http://www.w3.org/2000/svg">
<g id="Group 1" filter="url(#filter0_ii_180_16159)">
<path id="B" d="M80.0231 57.532C81.9185 54.503 83.6449 50.8565 85.2024 46.5923C87.4274 40.5007 88.3252 34.8026 87.8958 29.498C87.4664 24.1934 85.8316 19.6688 82.9914 15.924C80.1791 12.1031 76.3639 9.34778 71.5458 7.65812C66.65 5.94122 62.0835 5.84301 57.8462 7.36351C53.5311 8.85674 49.6067 11.5607 46.0729 15.4754C43.9763 12.335 41.4798 9.56966 38.5832 7.17947C35.6866 4.78928 32.5675 3.00826 29.226 1.8364C22.7759 -0.42556 17.1406 -0.597917 12.3201 1.31933C7.42182 3.20932 3.84626 7.23823 1.59342 13.406C-0.575976 19.3454 -0.530195 25.4603 1.73076 31.7507C3.99173 38.0412 8.22369 44.3357 14.4267 50.6341C21.4558 56.9826 42.6431 71.7436 71.159 80L73.7247 72.9756L58.8373 68.0124C47.1365 63.5654 37.6819 58.4889 30.4736 52.7827C23.2154 46.9732 18.2779 41.2903 15.6611 35.734C12.9944 30.0744 12.3981 25.2267 13.8722 21.191C14.7344 18.8305 16.0596 17.3625 17.8477 16.787C19.6637 16.1353 22.0871 16.3409 25.1178 17.4038C27.4492 18.2214 29.8635 19.4116 32.3609 20.9746C34.8084 22.4343 37.0559 24.0814 39.1034 25.9161C37.8526 28.1404 36.6154 30.9277 35.3916 34.2781C33.8619 38.4661 33.5596 42.0538 34.4848 45.0411C35.36 47.925 37.2742 49.8848 40.2272 50.9204C42.6362 51.7652 44.8461 51.5953 46.8568 50.4107C48.7898 49.1987 50.2708 47.1841 51.2999 44.3667C53.2467 39.0365 53.237 33.0631 51.2705 26.4464C53.6092 24.6037 56.053 23.3132 58.6019 22.575C61.0732 21.8096 63.5133 21.8493 65.9223 22.6941C69.3416 23.8932 71.6276 26.1551 72.7801 29.4799C73.9605 32.7285 73.6051 36.9418 71.7138 42.1197C70.5457 45.3178 69.1918 48.0643 67.6523 50.359C66.0351 52.6266 63.9986 54.9618 61.543 57.3648L73.2548 65.9818C75.9494 63.4049 78.2055 60.5883 80.0231 57.532Z" fill="#5B49EF"/>
</g>
<defs>
<filter id="filter0_ii_180_16159" x="0" y="-1" width="90" height="85" filterUnits="userSpaceOnUse" color-interpolation-filters="sRGB">
<feFlood flood-opacity="0" result="BackgroundImageFix"/>
<feBlend mode="normal" in="SourceGraphic" in2="BackgroundImageFix" result="shape"/>
<feColorMatrix in="SourceAlpha" type="matrix" values="0 0 0 0 0 0 0 0 0 0 0 0 0 0 0 0 0 0 127 0" result="hardAlpha"/>
<feOffset dy="-1"/>
<feGaussianBlur stdDeviation="0.5"/>
<feComposite in2="hardAlpha" operator="arithmetic" k2="-1" k3="1"/>
<feColorMatrix type="matrix" values="0 0 0 0 1 0 0 0 0 1 0 0 0 0 1 0 0 0 0.5 0"/>
<feBlend mode="normal" in2="shape" result="effect1_innerShadow_180_16159"/>
<feColorMatrix in="SourceAlpha" type="matrix" values="0 0 0 0 0 0 0 0 0 0 0 0 0 0 0 0 0 0 127 0" result="hardAlpha"/>
<feOffset dx="2" dy="4"/>
<feGaussianBlur stdDeviation="4"/>
<feComposite in2="hardAlpha" operator="arithmetic" k2="-1" k3="1"/>
<feColorMatrix type="matrix" values="0 0 0 0 1 0 0 0 0 1 0 0 0 0 1 0 0 0 0.8 0"/>
<feBlend mode="normal" in2="effect1_innerShadow_180_16159" result="effect2_innerShadow_180_16159"/>
</filter>
</defs>
</svg>
