<svg width="16" height="17" viewBox="0 0 16 17" fill="none" xmlns="http://www.w3.org/2000/svg">
<path fill-rule="evenodd" clip-rule="evenodd" d="M10.1342 1.67635C10.9239 1.20668 11.8979 1.19196 12.7011 1.63788C13.0343 1.82285 13.3382 2.13351 13.7902 2.59553L13.9129 2.72091C14.3665 3.18394 14.67 3.49382 14.8502 3.83259C15.2826 4.64532 15.2686 5.62852 14.8128 6.42819C14.6745 6.67096 14.4711 6.89643 14.1906 7.17455C14.0599 7.30415 13.9945 7.36895 13.9119 7.36877C13.8293 7.3686 13.7634 7.30268 13.6316 7.17084L13.6316 7.17084L9.37072 2.90998C9.2416 2.78087 9.17705 2.71632 9.17585 2.63521C9.17465 2.5541 9.23662 2.48835 9.36057 2.35685C9.65201 2.04764 9.88349 1.82547 10.1342 1.67635ZM12.8631 8.37274C12.8623 8.45668 12.7933 8.52322 12.6551 8.65629L7.43138 13.6876C6.5108 14.5746 5.94343 15.1213 5.22547 15.4017C4.50649 15.6825 3.72465 15.6619 2.45988 15.6286L2.45982 15.6286C2.45219 15.6284 1.76166 15.6103 1.6078 15.5847C1.43011 15.555 1.21907 15.4869 1.0521 15.2974C0.886632 15.1096 0.844169 14.8929 0.834233 14.7146C0.82546 14.5572 0.882298 13.83 0.882452 13.8281L0.882602 13.8261C0.968697 12.7189 1.02135 12.0418 1.28874 11.4264C1.55664 10.8098 2.01429 10.3141 2.761 9.50529L2.761 9.50529L7.91163 3.92484C8.04428 3.78112 8.1106 3.70926 8.19578 3.70755C8.28096 3.70585 8.35011 3.775 8.48841 3.91329L12.6605 8.08535C12.7961 8.22098 12.8639 8.2888 12.8631 8.37274ZM9.16404 14.3135C8.79585 14.3135 8.49738 14.612 8.49738 14.9801C8.49738 15.3483 8.79585 15.6468 9.16404 15.6468H14.4974C14.8656 15.6468 15.164 15.3483 15.164 14.9801C15.164 14.612 14.8656 14.3135 14.4974 14.3135L9.16404 14.3135Z" fill="#5B49EF"/>
</svg>
