<svg width="22" height="10" viewBox="0 0 22 10" fill="none" xmlns="http://www.w3.org/2000/svg">
<path fill-rule="evenodd" clip-rule="evenodd" d="M1.83216 0.445528C1.5258 -0.0140006 0.904935 -0.138174 0.445406 0.168178C-0.0141227 0.474531 -0.138296 1.0954 0.168056 1.55493C0.169754 1.55735 0.171624 1.56003 0.173654 1.56293C0.213844 1.62036 0.31652 1.76707 0.379126 1.85189C0.510588 2.03 0.702371 2.28 0.950635 2.57791C1.21283 2.89255 1.5397 3.26265 1.92675 3.65916L0.292893 5.29302C-0.0976311 5.68354 -0.0976311 6.3167 0.292893 6.70723C0.683417 7.09775 1.31658 7.09775 1.70711 6.70723L3.40167 5.01267C4.27663 5.72821 5.33041 6.44291 6.53761 6.99378L5.64251 8.48563C5.35836 8.95921 5.51192 9.57347 5.9855 9.85761C6.45908 10.1418 7.07334 9.9882 7.35749 9.51462L8.46017 7.67683C9.25952 7.88126 10.1079 8.00023 11.0001 8.00023C11.8923 8.00023 12.7406 7.88127 13.5399 7.67687L14.6425 9.51462C14.9267 9.9882 15.5409 10.1418 16.0145 9.85761C16.4881 9.57347 16.6416 8.95921 16.3575 8.48563L15.4624 6.9938C16.6696 6.44291 17.7233 5.72819 18.5983 5.01262L20.2929 6.70723C20.6834 7.09775 21.3166 7.09775 21.7071 6.70723C22.0976 6.3167 22.0976 5.68354 21.7071 5.29302L20.0732 3.65911C20.4602 3.26262 20.7871 2.89253 21.0493 2.57791C21.2975 2.28 21.4893 2.03 21.6208 1.85189C21.6834 1.76708 21.786 1.62039 21.8262 1.56295L21.8318 1.55493C22.1382 1.0954 22.014 0.474531 21.5545 0.168178C21.095 -0.138174 20.4741 -0.0140006 20.1677 0.445528C20.1415 0.482969 20.0669 0.589231 20.0116 0.664189C19.9009 0.814204 19.7333 1.03296 19.5128 1.29754C19.0707 1.82804 18.422 2.53551 17.599 3.24097C15.9371 4.66542 13.6622 6.00023 11.0001 6.00023C8.33801 6.00023 6.06276 4.66542 4.4009 3.24097C3.57785 2.53551 2.92916 1.82804 2.48708 1.29754C2.26659 1.03296 2.099 0.814204 1.98827 0.664189C1.93295 0.589231 1.85837 0.482969 1.83216 0.445528Z" fill="#020203"/>
</svg>
